<svg xmlns="http://www.w3.org/2000/svg" viewBox="0 0 2000 1000" width="280" height="140">
  <rect width="2000" height="1000" fill="#e8e4de"/>
  
  <!-- North America -->
  <path d="M200,120 L350,80 L420,100 L480,90 L510,130 L530,180 L510,220 L490,300 L450,350 L400,380 L360,420 L320,400 L290,450 L270,480 L250,500 L230,480 L220,440 L200,400 L180,360 L160,320 L150,280 L140,240 L150,200 L180,160 Z" fill="#a8a89a" opacity="0.85"/>
  
  <!-- Greenland -->
  <path d="M440,40 L500,30 L540,60 L530,100 L490,110 L450,90 Z" fill="#a8a89a" opacity="0.85"/>
  
  <!-- Central America -->
  <path d="M310,440 L340,450 L360,480 L340,500 L310,490 L295,470 Z" fill="#a8a89a" opacity="0.85"/>
  
  <!-- South America -->
  <path d="M320,500 L380,490 L430,510 L460,550 L480,620 L470,700 L450,760 L420,800 L390,820 L360,810 L330,770 L310,720 L300,660 L300,600 L310,540 Z" fill="#a8a89a" opacity="0.85"/>
  
  <!-- Europe -->
  <path d="M860,120 L920,100 L970,110 L1000,140 L990,180 L960,200 L930,210 L900,230 L870,220 L850,200 L840,170 L850,140 Z" fill="#a8a89a" opacity="0.85"/>
  
  <!-- Scandinavia -->
  <path d="M900,60 L940,40 L970,70 L960,110 L930,120 L900,100 Z" fill="#a8a89a" opacity="0.85"/>
  
  <!-- Africa -->
  <path d="M860,260 L930,240 L980,250 L1010,290 L1020,360 L1010,440 L990,520 L960,600 L920,660 L880,700 L850,690 L820,650 L800,580 L790,500 L800,420 L810,350 L830,300 Z" fill="#a8a89a" opacity="0.85"/>
  
  <!-- Asia (simplified) -->
  <path d="M990,80 L1100,60 L1250,70 L1380,90 L1480,120 L1520,160 L1500,200 L1460,230 L1400,250 L1350,260 L1300,280 L1250,270 L1200,290 L1150,280 L1100,300 L1060,280 L1030,260 L1010,230 L1000,190 L990,150 Z" fill="#a8a89a" opacity="0.85"/>
  
  <!-- India -->
  <path d="M1150,280 L1200,290 L1220,340 L1200,400 L1160,440 L1140,410 L1130,360 L1140,310 Z" fill="#a8a89a" opacity="0.85"/>
  
  <!-- Southeast Asia -->
  <path d="M1350,280 L1430,270 L1480,300 L1470,340 L1430,360 L1390,350 L1360,320 Z" fill="#a8a89a" opacity="0.85"/>
  
  <!-- Japan/Korea -->
  <path d="M1520,160 L1560,150 L1580,180 L1560,210 L1530,200 Z" fill="#a8a89a" opacity="0.85"/>
  
  <!-- Australia -->
  <path d="M1400,560 L1500,540 L1580,560 L1600,620 L1580,680 L1540,720 L1480,730 L1430,710 L1400,660 L1390,600 Z" fill="#a8a89a" opacity="0.85"/>
  
  <!-- New Zealand -->
  <path d="M1640,700 L1660,690 L1670,720 L1650,740 L1635,720 Z" fill="#a8a89a" opacity="0.85"/>
  
  <!-- Madagascar -->
  <path d="M1050,560 L1070,540 L1085,570 L1080,610 L1060,620 L1045,600 Z" fill="#a8a89a" opacity="0.85"/>
  
  <!-- UK/Ireland -->
  <path d="M820,130 L840,120 L848,145 L835,165 L820,155 Z" fill="#a8a89a" opacity="0.85"/>
  
  <!-- Philippines -->
  <path d="M1480,340 L1510,330 L1520,360 L1500,375 L1480,365 Z" fill="#a8a89a" opacity="0.85"/>
</svg>